<svg width="124" height="37" viewBox="0 0 124 37" fill="none" xmlns="http://www.w3.org/2000/svg">
<g clip-path="url(#clip0_73_158)">
<path d="M58.6798 30.5036C57.2911 30.5036 56.057 30.1587 54.9745 29.4673C53.892 28.7759 53.0499 27.8123 52.4482 26.5748C51.8464 25.3374 51.5448 23.9252 51.5448 22.3367C51.5448 20.7482 51.8816 19.2277 52.5553 17.9594C53.229 16.6911 54.1523 15.7011 55.3266 14.9896C56.501 14.2781 57.8224 13.9224 59.2922 13.9224C61.0071 13.9224 62.431 14.391 63.564 15.3299C64.697 16.2688 65.4902 17.879 65.7152 19.4876L65.7106 19.5093C64.5072 19.9887 63.2501 20.5301 62.2381 21.3437C61.9992 21.5355 62.2304 21.3499 62.2258 21.353L61.9992 21.5355C61.9992 19.4319 61.6593 17.449 61.1295 16.2116C60.5983 14.9943 59.8526 14.3864 58.8941 14.3864C58.2403 14.3864 57.6738 14.654 57.1946 15.1907C56.7154 15.7274 56.3479 16.4482 56.0922 17.3562C55.8365 18.2641 55.7094 19.2741 55.7094 20.3878C55.7094 21.8108 55.9238 23.0637 56.3525 24.1464C56.7812 25.2292 57.3829 26.0752 58.1592 26.6831C58.9339 27.291 59.8526 27.5957 60.9152 27.5957C61.8951 27.5957 62.8291 27.3482 63.7171 26.8533C64.5669 26.38 65.2712 25.7458 65.8316 24.9507C65.8775 24.8858 65.9571 24.8579 66.0322 24.8796C66.1317 24.909 66.1868 25.0173 66.1547 25.1163C65.8056 26.1541 65.2743 27.0683 64.5592 27.8587C63.8044 28.6939 62.9209 29.3435 61.9104 29.8076C60.8999 30.2716 59.8235 30.5036 58.6798 30.5036Z" fill="#57050D"/>
<path d="M75.8894 30.5036C74.2144 30.5036 72.7506 30.1633 71.4951 29.4827C70.2396 28.8022 69.2643 27.8432 68.5707 26.6058C67.8756 25.3684 67.5295 23.9036 67.5295 22.213C67.5295 20.5224 67.8771 19.0576 68.5707 17.8202C69.2643 16.5828 70.2396 15.6238 71.4951 14.9432C72.7506 14.2626 74.2159 13.9224 75.8894 13.9224C77.5629 13.9224 79.0221 14.2626 80.2684 14.9432C81.5132 15.6238 82.4824 16.5828 83.1775 17.8202C83.8711 19.0576 84.2186 20.5224 84.2186 22.213C84.2186 23.9036 83.8711 25.3684 83.1775 26.6058C82.4824 27.8432 81.5132 28.8022 80.2684 29.4827C79.0236 30.1633 77.5629 30.5036 75.8894 30.5036ZM75.8588 30.1015C76.5738 30.1015 77.1863 29.7411 77.6961 29.0187C78.206 28.2964 78.6041 27.3328 78.8904 26.1263C79.1767 24.9198 79.3191 23.6051 79.3191 22.1821C79.3191 20.6353 79.1706 19.2695 78.8751 18.0831C78.578 16.8968 78.1708 15.9687 77.6502 15.299C77.1296 14.6292 76.5432 14.2936 75.8894 14.2936C75.1943 14.2936 74.588 14.654 74.0674 15.3763C73.5468 16.0987 73.1426 17.0576 72.8578 18.2533C72.5715 19.4489 72.4291 20.759 72.4291 22.1821C72.4291 23.7489 72.5822 25.1317 72.8884 26.3274C73.1946 27.523 73.608 28.4511 74.1286 29.1115C74.6492 29.772 75.2249 30.1015 75.8588 30.1015Z" fill="#57050D"/>
<path d="M84.5264 37V36.6597C85.2812 36.6597 85.8845 36.3086 86.3331 35.6079C86.7817 34.9072 87.0068 33.9684 87.0068 32.7928V17.1396C87.0068 16.3554 86.8491 15.7476 86.5321 15.3145C86.2152 14.8814 85.5476 14.6648 84.5264 14.6648V14.3555H87.6498C88.7308 14.3555 89.5484 14.2936 90.0996 14.1699C90.6508 14.0879 91.0382 13.8605 91.2633 13.4893L91.4148 13.1799V29.2972C91.4164 30.8238 91.1362 32.1633 90.5743 33.3187C90.0123 34.4742 89.2162 35.3759 88.1857 36.0256C87.1553 36.6752 85.935 37 84.5264 37Z" fill="#57050D"/>
<path d="M98.1839 30.5036C96.9391 30.5036 95.9378 30.1633 95.1829 29.4827C94.4281 28.8022 94.0499 27.905 94.0499 26.7914C94.0499 26.3165 94.1311 25.8695 94.2949 25.4457C94.4572 25.0234 94.7634 24.6058 95.2136 24.1928C95.6821 23.7798 96.3267 23.3529 97.1428 22.909C97.9589 22.4651 99.0413 21.9964 100.389 21.5015L103.237 20.4497V18.1295C103.237 16.954 103.053 16.0213 102.685 15.3299C102.318 14.6385 101.808 14.2936 101.154 14.2936C100.378 14.3137 99.7196 14.8303 99.1791 15.8403C98.6371 16.8504 98.2758 18.2533 98.0921 20.0475L94.7849 18.1295C95.1324 17.285 95.6622 16.541 96.3772 15.9022C97.0922 15.2634 97.9129 14.7684 98.8423 14.4173C99.7717 14.0662 100.745 13.8914 101.767 13.8914C103.501 13.8914 104.916 14.3817 106.008 15.3608C107.1 16.3399 107.646 17.6763 107.646 19.3669V26.8223C107.646 28.018 108.044 28.6166 108.84 28.6166C109.309 28.6166 109.768 28.3582 110.218 27.8432L110.463 28.0597C109.932 28.7821 109.289 29.3698 108.534 29.823C107.778 30.2762 107.044 30.5036 106.329 30.5036C105.553 30.5036 104.886 30.236 104.324 29.6993C103.762 29.1626 103.41 28.4511 103.267 27.5648C102.266 28.5964 101.395 29.3435 100.649 29.8076C99.9034 30.2716 99.0827 30.5036 98.1839 30.5036ZM100.481 28.5856C100.929 28.5856 101.364 28.4727 101.782 28.2453C102.2 28.018 102.675 27.6467 103.206 27.1317L103.237 20.8518L102.012 21.3159C100.971 21.7072 100.174 22.1047 99.6232 22.5069C99.072 22.909 98.6892 23.3576 98.4748 23.8525C98.2605 24.3475 98.1533 24.9152 98.1533 25.554C98.1533 26.4403 98.3722 27.1672 98.8117 27.7349C99.2511 28.3026 99.8069 28.5856 100.481 28.5856Z" fill="#57050D"/>
<path d="M110.157 30.0705V29.7612H110.188C110.923 29.7612 111.515 29.5338 111.964 29.0806C112.413 28.6274 112.638 28.0288 112.638 27.2864V17.1396C112.638 16.3554 112.478 15.7476 112.163 15.3145C111.846 14.8814 111.177 14.6648 110.157 14.6648V14.3555H113.189C114.271 14.3555 115.346 14.2874 115.897 14.0709C116.449 13.8543 116.73 13.531 116.955 13.1799L116.986 18.2533C117.251 17.6346 117.592 16.985 118.012 16.3044C118.43 15.6238 118.961 15.0515 119.604 14.5875C120.247 14.1235 121.017 13.8914 121.916 13.8914C122.222 13.8914 122.548 13.9224 122.896 13.9842C123.244 14.0461 123.611 14.159 123.998 14.3245L122.804 17.9439C122.069 17.531 121.431 17.2433 120.89 17.0778C120.348 16.9123 119.875 16.8303 119.466 16.8303C118.773 16.8303 118.257 17.0468 117.92 17.4799C117.583 17.913 117.292 18.4281 117.047 19.0267V27.2864C117.047 28.0288 117.271 28.6274 117.721 29.0806C118.17 29.5338 118.762 29.7612 119.497 29.7612H119.528V30.0705H110.157Z" fill="#57050D"/>
<path d="M124 14.3106C124 14.3106 123.421 17.2757 123.683 18.4915C123.683 18.4915 123.234 18.1558 122.804 17.9439C122.374 17.732 124 14.3106 124 14.3106Z" fill="#57050D"/>
<path d="M94.7941 18.1342C94.7941 18.1342 97.3709 19.9423 98.0125 20.9833C98.0094 21.121 98.0492 20.5162 98.1043 19.9238C98.1487 19.4489 94.7941 18.1326 94.7941 18.1326V18.1342Z" fill="#57050D"/>
<path d="M89.135 11.2001C90.3536 11.2001 91.3414 10.2022 91.3414 8.97119C91.3414 7.74021 90.3536 6.74231 89.135 6.74231C87.9165 6.74231 86.9287 7.74021 86.9287 8.97119C86.9287 10.2022 87.9165 11.2001 89.135 11.2001Z" fill="#57050D"/>
<path d="M31.9205 30.3798L31.9512 30.0705H31.9818C32.7167 30.0705 33.3092 29.874 33.7579 29.4827C34.2065 29.0914 34.4316 28.5237 34.4316 27.7813V9.96263C34.4316 9.22019 34.2065 8.62159 33.7579 8.16839C33.3092 7.71519 32.7167 7.48782 31.9818 7.48782L31.9512 7.17847H48.3647L49.2833 13.3964H48.9771C48.3647 9.51871 45.9455 7.88998 41.7196 7.88998H39.1474V16.3662H41.9034C42.9246 16.3662 43.7407 16.2069 44.3531 15.5774C44.9656 14.9478 45.2718 14.1188 45.2718 13.0871H45.578V20.6971H45.2718C45.2519 19.5835 44.9043 18.6755 44.2307 17.9748C43.557 17.2742 42.6689 17.0777 41.5665 17.0777H39.1474V27.7813C39.1474 29.2461 39.8624 29.6683 41.2909 29.6683H42.5771C44.5568 29.6683 46.1292 29.1533 47.2929 28.1216C48.4565 27.0899 49.2022 25.7813 49.5283 23.5741H49.8345L48.9159 30.3798H31.9205Z" fill="#57050D"/>
<path d="M16.3063 15.1954L15.1717 14.4468L15.0002 14.4654L15.5545 13.8838C17.0902 12.1035 17.8359 11.4306 17.7425 11.0238C17.6919 10.8042 17.597 10.7145 17.4561 10.7547C17.0856 11.5961 16.3415 12.1437 16.1134 12.2086C15.2023 12.47 14.7139 12.204 13.7585 11.5915C12.8031 10.9805 12.134 9.84519 11.7528 8.18398C11.3623 6.48409 11.2506 5.1678 11.419 4.23356C11.5859 3.30086 11.8707 2.77651 12.2718 2.66205C12.428 2.61719 12.7587 2.75795 13.2609 3.08432C13.365 3.15237 13.4599 3.22816 13.5487 3.30705C13.8366 3.59939 14.0341 3.96133 14.1336 4.39906C14.2423 4.86927 14.2592 5.37661 14.1888 5.91952C14.1183 6.46244 13.855 7.13991 13.3987 7.94887C12.9424 8.75937 12.7526 9.33167 12.8291 9.66422L12.9164 9.72145C12.9179 9.73073 12.9164 9.74156 12.9195 9.7493L13.0787 9.85448C13.3022 9.20174 13.7754 8.32164 14.5011 7.2188C15.2268 6.11441 15.6801 5.20492 15.8607 4.48877C16.0414 3.77262 16.0659 3.12762 15.9342 2.55532C15.6892 1.48806 13.9836 0.394504 12.8552 0.0882455L12.5061 0.00317383C12.5061 0.00317383 12.284 0.703855 11.7543 1.6582C10.0486 4.83679 9.46681 7.60549 10.0088 9.96584C10.5447 12.3014 11.6793 13.8822 13.4079 14.7128C11.3363 15.9008 10.1221 17.7754 9.7715 20.3399C9.76691 20.3755 9.76538 20.4126 9.76078 20.4482C9.75619 20.4126 9.75466 20.3755 9.75006 20.3399C9.39944 17.7739 8.18527 15.9008 6.11368 14.7128C7.8423 13.8822 8.97685 12.3014 9.51274 9.96584C10.0548 7.60549 9.47293 4.83679 7.76728 1.6582C7.23751 0.703855 7.0155 0.00317383 7.0155 0.00317383L6.66641 0.0882455C5.53798 0.394504 3.83385 1.48806 3.58735 2.55532C3.45567 3.12917 3.48017 3.77417 3.66084 4.48877C3.84151 5.20492 4.29472 6.11441 5.02047 7.2188C5.74621 8.32318 6.22086 9.20174 6.44287 9.85448L6.6021 9.7493C6.60363 9.74002 6.60363 9.73073 6.60516 9.72145L6.69244 9.66422C6.76899 9.33167 6.57914 8.75937 6.12286 7.94887C5.66659 7.13991 5.40324 6.46244 5.33281 5.91952C5.26238 5.37661 5.28075 4.86927 5.38793 4.39906C5.48898 3.96133 5.68497 3.59939 5.97282 3.30705C6.06162 3.22662 6.15655 3.15083 6.26066 3.08432C6.76287 2.75795 7.09359 2.61719 7.24976 2.66205C7.65091 2.77651 7.9357 3.30086 8.10259 4.23356C8.26948 5.1678 8.15771 6.48254 7.76881 8.18398C7.38756 9.84519 6.72 10.9805 5.76305 11.5915C4.80764 12.2025 4.31922 12.47 3.40821 12.2086C3.18007 12.1437 2.43595 11.5977 2.06542 10.7547C1.92456 10.7145 1.82963 10.8042 1.77911 11.0238C1.68571 11.4291 2.43136 12.1035 3.96706 13.8838L4.52132 14.4654L4.34984 14.4468L3.21529 15.1954C0.992115 16.8195 -0.0582266 17.4073 0.00301776 17.8559C0.0367022 18.0971 0.145411 18.2101 0.330675 18.193C0.924746 17.3609 1.95518 16.9108 2.25681 16.8814C3.46026 16.7623 4.04668 17.132 5.18276 17.9502C6.31885 18.7669 7.01091 20.094 7.26201 21.9285C7.51771 23.8062 7.4733 25.2262 7.12574 26.1913C6.77818 27.155 6.34028 27.6623 5.81052 27.7149C5.60382 27.735 5.20114 27.5277 4.60553 27.0931C4.48151 27.0018 4.37127 26.9059 4.26869 26.8054C3.94103 26.445 3.74199 26.0243 3.67615 25.5401C3.60572 25.0204 3.65471 24.4775 3.82161 23.913C3.99003 23.3468 4.42333 22.674 5.12305 21.8913C5.82277 21.1087 6.14736 20.5333 6.09684 20.1652L5.99425 20.0894C5.99425 20.0801 5.99425 20.0677 5.99425 20.0584L5.80592 19.9192C5.42774 20.5751 4.69587 21.4273 3.60878 22.476C2.52322 23.5232 1.81279 24.4126 1.47901 25.1426C1.14523 25.8727 1.02274 26.5548 1.10848 27.189C1.26925 28.3676 3.2949 29.8309 4.69434 30.3537L5.12917 30.5052C5.12917 30.5052 5.51348 29.7984 6.32803 28.875C8.37666 26.4775 9.51887 24.2254 9.75925 22.1172C10.0012 24.2254 11.1418 26.4775 13.1905 28.875C14.005 29.7984 14.3893 30.5052 14.3893 30.5052L14.8242 30.3537C16.2236 29.8293 18.2493 28.3676 18.41 27.189C18.4958 26.5548 18.3733 25.8727 18.0395 25.1426C17.7057 24.4126 16.9953 23.5232 15.9097 22.476C14.8226 21.4289 14.0908 20.5751 13.7126 19.9192L13.5243 20.0584C13.5243 20.0677 13.5243 20.0785 13.5243 20.0894L13.4217 20.1652C13.3711 20.5333 13.6957 21.1087 14.3955 21.8913C15.0952 22.6725 15.5285 23.3468 15.6969 23.913C15.8638 24.4775 15.9143 25.0204 15.8424 25.5401C15.7765 26.0227 15.5775 26.4435 15.2498 26.8054C15.1472 26.9059 15.037 27.0034 14.913 27.0931C14.3174 27.5277 13.9147 27.735 13.708 27.7149C13.1782 27.6623 12.7403 27.155 12.3928 26.1913C12.0452 25.2277 12.0008 23.8062 12.2565 21.9285C12.5076 20.094 13.1997 18.7684 14.3357 17.9502C15.4703 17.132 16.0582 16.7623 17.2617 16.8814C17.5633 16.9108 18.5938 17.3624 19.1878 18.193C19.3731 18.2116 19.4818 18.0987 19.5155 17.8559C19.5767 17.4073 18.5264 16.8211 16.3078 15.1954H16.3063Z" fill="#57050D"/>
</g>
<defs>
<clipPath id="clip0_73_158">
<rect width="124" height="37" fill="white"/>
</clipPath>
</defs>
</svg>
