<svg width="54" height="63" viewBox="0 0 54 63" fill="none" xmlns="http://www.w3.org/2000/svg">
<path d="M44.4012 30.9241L41.3102 29.4004L40.8432 29.4374L42.3522 28.2525C46.5329 24.63 48.5636 23.2588 48.3098 22.4328C48.1723 21.987 47.9129 21.8038 47.5314 21.8854C46.523 23.5997 44.4965 24.7105 43.8738 24.8439C41.3915 25.3766 40.062 24.8333 37.4605 23.5881C34.8575 22.346 33.0386 20.0333 32.0008 16.6533C30.9391 13.1939 30.6348 10.5149 31.0906 8.61522C31.5464 6.71661 32.3191 5.64923 33.4116 5.41522C33.838 5.32415 34.7369 5.61006 36.1043 6.27293C36.389 6.41058 36.6471 6.56413 36.8897 6.7272C37.675 7.32018 38.2094 8.06035 38.4829 8.94983C38.7774 9.90707 38.8265 10.9406 38.6343 12.0439C38.4408 13.1494 37.7241 14.526 36.4816 16.1736C35.239 17.8224 34.7229 18.9861 34.9305 19.6638L35.1675 19.7803C35.1717 19.7983 35.1717 19.8194 35.1759 19.8374L35.6078 20.0513C36.2151 18.7214 37.5054 16.9329 39.4828 14.6859C41.4574 12.4389 42.693 10.5879 43.1852 9.1309C43.6775 7.67491 43.7434 6.36188 43.3858 5.19497C42.7182 3.0221 38.0761 0.797352 35.0034 0.17366L34.0539 0C34.0539 0 33.4481 1.42634 32.005 3.36942C27.3615 9.83825 25.7753 15.4737 27.2507 20.2769C28.7106 25.0303 31.7988 28.2472 36.5054 29.9372C30.8648 32.3547 27.5578 36.1689 26.6042 41.3914C26.5916 41.4644 26.5859 41.5386 26.5747 41.6116C26.5635 41.5386 26.5593 41.4644 26.5453 41.3914C25.5916 36.1699 22.2847 32.3558 16.644 29.9372C21.3492 28.2462 24.4388 25.0303 25.8988 20.2769C27.3727 15.4727 25.788 9.83719 21.1445 3.36942C19.7028 1.4274 19.0955 0 19.0955 0L18.1461 0.17366C15.0733 0.797352 10.4312 3.0221 9.76368 5.19497C9.40605 6.36188 9.47197 7.67491 9.96423 9.1309C10.4565 10.5869 11.6906 12.4389 13.6653 14.6859C15.6413 16.9329 16.933 18.7214 17.5402 20.0513L17.9722 19.8374C17.9778 19.8205 17.9764 19.7983 17.9806 19.7803L18.2176 19.6638C18.4251 18.9861 17.909 17.8224 16.6665 16.1736C15.4239 14.526 14.7073 13.1484 14.5137 12.0439C14.3216 10.9406 14.3721 9.90813 14.6652 8.94983C14.9387 8.06035 15.473 7.32124 16.2584 6.7272C16.501 6.56413 16.759 6.41058 17.0437 6.27293C18.4111 5.609 19.3101 5.32309 19.7364 5.41522C20.8289 5.64923 21.6031 6.71661 22.0575 8.61522C22.5119 10.5149 22.2089 13.1939 21.1473 16.6533C20.1095 20.0344 18.2905 22.346 15.6876 23.5881C13.0861 24.8323 11.7551 25.3755 9.27422 24.8439C8.65154 24.7105 6.62501 23.5987 5.61666 21.8854C5.2352 21.8038 4.97434 21.987 4.83831 22.4328C4.58446 23.2588 6.6152 24.6311 10.7959 28.2525L12.3049 29.4374L11.8379 29.4004L8.74691 30.9241C2.69958 34.2321 -0.159992 35.4255 0.00689883 36.3383C0.096655 36.8307 0.395375 37.0605 0.898851 37.0234C2.51586 35.3313 5.32075 34.4143 6.14398 34.3529C9.42148 34.1114 11.0189 34.8643 14.1098 36.5289C17.2036 38.1924 19.0885 40.8916 19.7701 44.6252C20.4685 48.4468 20.3437 51.3366 19.3984 53.2998C18.4532 55.2608 17.2597 56.2954 15.8166 56.4013C15.2542 56.4426 14.1589 56.0211 12.5349 55.1348C12.1969 54.9506 11.8954 54.7536 11.6177 54.5482C10.7257 53.8133 10.1844 52.9567 10.0049 51.9751C9.81136 50.9172 9.94459 49.8117 10.4018 48.6628C10.8604 47.5118 12.0398 46.1405 13.9444 44.549C15.8489 42.9564 16.7324 41.7853 16.595 41.0366L16.3145 40.881C16.3117 40.8609 16.3173 40.8386 16.3145 40.8196L15.8026 40.5358C14.7718 41.871 12.7789 43.6066 9.81977 45.7382C6.86343 47.8708 4.92946 49.6794 4.02209 51.165C3.11471 52.6507 2.77812 54.0389 3.01373 55.3286C3.45269 57.7291 8.96709 60.7047 12.7789 61.771L13.9612 62.0802C13.9612 62.0802 15.0102 60.6411 17.2261 58.7626C22.8064 53.8843 25.9128 49.3014 26.5705 45.0086C27.2283 49.3003 30.3347 53.8843 35.915 58.7626C38.1308 60.6411 39.1799 62.0802 39.1799 62.0802L40.3621 61.771C44.174 60.7047 49.6883 57.7291 50.1273 55.3286C50.3629 54.0389 50.0263 52.6507 49.119 51.165C48.2116 49.6794 46.2776 47.8697 43.3213 45.7382C40.3635 43.6055 38.3693 41.871 37.3385 40.5358L36.8266 40.8196C36.8238 40.8386 36.828 40.8619 36.8266 40.881L36.5461 41.0366C36.41 41.7853 37.2936 42.9564 39.1967 44.549C41.1012 46.1395 42.2807 47.5118 42.7393 48.6628C43.1951 49.8117 43.3297 50.9172 43.1361 51.9751C42.9566 52.9577 42.4139 53.8144 41.5233 54.5482C41.2443 54.7536 40.9441 54.9506 40.6061 55.1348C38.9821 56.0201 37.8868 56.4426 37.3244 56.4013C35.8827 56.2954 34.6878 55.2608 33.7426 53.2998C32.7974 51.3376 32.6739 48.4468 33.371 44.6252C34.0525 40.8916 35.9374 38.1924 39.0312 36.5289C42.1222 34.8632 43.721 34.1114 46.9971 34.3529C47.8203 34.4132 50.6252 35.3313 52.2422 37.0234C52.7457 37.0605 53.0444 36.8307 53.1341 36.3383C53.301 35.4255 50.4415 34.2321 44.3997 30.9241H44.4012Z" fill="#57050D"/>
</svg>
